<svg xmlns="http://www.w3.org/2000/svg" width="54" height="36" fill="none">
  <path fill="#86E543" d="M51.15 15H2.85C1.276 15 0 15.766 0 16.71v.18c0 .944 1.276 1.71 2.85 1.71h48.3c1.574 0 2.85-.766 2.85-1.71v-.18c0-.944-1.276-1.71-2.85-1.71ZM51.15 30H2.85C1.276 30 0 30.766 0 31.71v.18c0 .944 1.276 1.71 2.85 1.71h48.3c1.574 0 2.85-.766 2.85-1.71v-.18c0-.944-1.276-1.71-2.85-1.71ZM51.15 0H2.85C1.276 0 0 .766 0 1.71v.18C0 2.834 1.276 3.6 2.85 3.6h48.3c1.574 0 2.85-.766 2.85-1.71v-.18C54 .766 52.724 0 51.15 0Z"/>
</svg>
