<svg xmlns="http://www.w3.org/2000/svg" width="24" height="24" fill="none">
  <rect width="24" height="24" fill="#fff" rx="12"/>
  <path fill="#001414" fill-rule="evenodd" d="M16.688 8.24c.517.131.923.52 1.061 1.013.251.894.251 2.76.251 2.76s0 1.865-.25 2.759c-.139.493-.545.865-1.062.997-.935.24-4.688.24-4.688.24s-3.752 0-4.688-.24c-.517-.132-.923-.504-1.061-.997C6 13.878 6 12.012 6 12.012s0-1.865.25-2.759A1.47 1.47 0 0 1 7.313 8.24C8.248 8 12 8 12 8s3.752 0 4.688.24Zm-5.915 2.079v3.387l3.136-1.694-3.136-1.693Z" clip-rule="evenodd"/>
</svg>
